<svg id="Lager_1" data-name="Lager 1" xmlns="http://www.w3.org/2000/svg" viewBox="0 0 69.15 56.25"><defs><style>.cls-1{fill:#fff;fill-rule:evenodd;}</style></defs><path class="cls-1" d="M88.15,32.66A28.53,28.53,0,0,1,80,34.9,14.29,14.29,0,0,0,86.24,27a28.45,28.45,0,0,1-9,3.44,14.2,14.2,0,0,0-4.72-3.31A14,14,0,0,0,66.87,26,14.26,14.26,0,0,0,53.05,43.44,40.27,40.27,0,0,1,23.81,28.6a14.24,14.24,0,0,0,4.39,19,14.06,14.06,0,0,1-6.42-1.78V46A14.22,14.22,0,0,0,33.16,59.89a14.31,14.31,0,0,1-6.41.24A14.2,14.2,0,0,0,40,70a28.42,28.42,0,0,1-17.62,6.08,27.26,27.26,0,0,1-3.38-.2,40.06,40.06,0,0,0,21.75,6.38c26.09,0,40.36-21.64,40.36-40.4,0-.62,0-1.23,0-1.84a29.1,29.1,0,0,0,7.08-7.35" transform="translate(-19 -26)"/></svg>